<?xml version="1.0" encoding="UTF-8" standalone="no"?>
<svg
   xmlns:dc="http://purl.org/dc/elements/1.1/"
   xmlns:cc="http://creativecommons.org/ns#"
   xmlns:rdf="http://www.w3.org/1999/02/22-rdf-syntax-ns#"
   xmlns:svg="http://www.w3.org/2000/svg"
   xmlns="http://www.w3.org/2000/svg"
   viewBox="0 0 6666.6665 3888"
   height="3888"
   width="6666.6665"
   xml:space="preserve"
   id="svg2"
   version="1.1"><metadata
     id="metadata8"><rdf:RDF><cc:Work
         rdf:about=""><dc:format>image/svg+xml</dc:format><dc:type
           rdf:resource="http://purl.org/dc/dcmitype/StillImage" /></cc:Work></rdf:RDF></metadata><defs
     id="defs6" /><g
     transform="matrix(1.3333333,0,0,-1.3333333,0,3888)"
     id="g10"><g
       transform="scale(0.1)"
       id="g12"><g
         transform="scale(3.06748)"
         id="g14"><path
           id="path16"
           style="fill:none;fill-opacity:1;fill-rule:evenodd;stroke:none"
           d="M 0,9506.16 H 16300 V 0 H 0 v 9506.16" /></g><g
         transform="scale(3.06748)"
         id="g18"><path
           id="path20"
           style="fill:#b3b3b3;fill-opacity:1;fill-rule:nonzero;stroke:none"
           d="m 5981.16,0 c 3747.76,6138.94 6346.54,7613.94 8694.14,6244.6 551.9,-321.93 1089.6,-801.38 1624.7,-1414.42 v -58.52 C 15758.2,5397.29 15214.3,5885.7 14656.1,6211.24 12331.8,7566.97 9752.55,6098.58 6026.14,0 Z M 16300,7174.89 v -50.38 C 13495.3,9207.68 10463.1,9286.27 5334.11,4681.72 3277.74,2835.61 1504.46,2017.13 0,1828.96 v 41.76 C 1497.09,2058.2 3261.83,2872.91 5308.55,4710.34 10448,9324.32 13489.6,9254.36 16300,7174.89 Z m 0,-107.83 v -49.39 C 13490.1,9157.01 10459.9,9197.79 5334.4,4403.74 3278.94,2481.19 1505.29,1626.02 0,1425.63 v 42.25 C 1497.75,1667.49 3262.71,2518.64 5308.23,4431.91 10442.1,9233.82 13482.9,9202.46 16300,7067.06 Z m 0,-108.54 V 6908.9 C 13484.5,9105.12 10456,9109.31 5334.7,4125.82 3280.18,2126.6 1506.11,1234.73 0,1022.27 v 42.54 C 1498.43,1276.49 3263.59,2164.09 5307.93,4153.4 10436.9,9144.33 13476.5,9150.43 16300,6958.52 Z m 0,-108.85 v -49.4 C 13478.8,9053.95 10452,9021.22 5334.93,3847.84 3281.39,1771.68 1506.93,843.134 0,618.683 v 42.967 c 1499.13,223.603 3264.53,1147.65 5307.7,3213.32 5124,5180.38 8162.4,5223.68 10992.3,2974.7 z m 0,-108.74 v -49.82 C 13473,9002.87 10447.9,8933.56 5335.22,3569.93 3282.63,1416.53 1507.79,451.445 0,215.128 v 43.423 C 1499.84,493.923 3265.41,1454.19 5307.41,3596.47 10426.5,8966.83 13463.7,9047.51 16300,6740.93 Z m 0,-109.46 V 6581.5 C 13467.2,8951.96 10443.7,8846.36 5335.45,3291.95 3622.12,1428.99 2102.36,425.495 768.877,0 H 627.362 C 1986.32,397.166 3543.88,1400.72 5307.18,3318.03 10421.3,8878.77 13457.3,8996.23 16300,6631.47 Z m 0,-109.94 v -50.48 C 13461.4,8900.87 10439.5,8759.65 5335.68,3013.97 4010.62,1522.26 2801.16,563.557 1703.41,0 h -91.13 C 2725.74,554.526 3955.95,1518.67 5306.95,3039.59 10416,8791.17 13450.8,8945.01 16300,6521.53 Z m 0,-109.67 v -51.13 c -17.4,15.21 -34.8,30.41 -52.1,45.42 C 13418.6,8848.21 10404.1,8637.1 5335.9,2735.96 4264.99,1489.04 3269.59,603.165 2346.98,0 h -74.37 c 934.74,600.492 1945.21,1493.28 3034.12,2761.16 5087.87,5924.08 8118.47,6132.28 10966.27,3674.23 9,-7.77 18,-15.7 27,-23.53 z m 0,-110.44 v -51.56 c -81.2,72.64 -162.5,143.18 -244,211.27 C 13275.9,8783.37 10285.7,8413.02 5336.07,2458.07 4460.53,1404.7 3635.06,599.873 2858.5,0 h -64.33 c 786.32,600.394 1623.52,1413.21 2512.43,2482.62 4968.8,5977.99 7975.1,6345.95 10773.9,4008.05 73.3,-61.24 146.4,-124.34 219.5,-189.25 z m 0,-110.87 v -52.1 c -138.2,126.27 -276.6,246.02 -415.7,358.55 C 13147,8711.87 10180.3,8196.52 5336.29,2180.09 4618.57,1288.65 3934.89,571.837 3283.51,0 h -59.22 C 3884.16,574.314 4577.73,1299.24 5306.37,2204.18 10169.1,8243.85 13152,8757.31 15908.3,6527 c 131.1,-106.02 261.6,-218.32 391.7,-336.45 z m 0,-111.2 v -52.52 c -189.4,176.76 -379.4,340.74 -570.6,490.73 C 13029.6,8635.42 10085.6,7986.43 5336.42,1902.08 4752.69,1154.24 4191.64,526.849 3651.66,0 h -55.65 c 547.61,530.696 1117.2,1166.04 1710.19,1925.75 4767.4,6107.63 7727.7,6755.14 10446.8,4622.1 183.3,-143.77 365.5,-300.24 547,-468.5 z m 0,-111.79 v -52.88 c -235.8,224.75 -472.5,429.04 -711.2,610.73 C 12922.2,8554.98 9999.92,7781.63 5336.59,1624.1 4868.91,1006.56 4415.87,469.636 3976.19,0 h -52.75 c 446.49,474.363 907,1019.34 1382.63,1647.31 4681.07,6180.93 7619.73,6953.19 10305.83,4908.7 231,-175.78 460,-372.6 688.1,-588.45 z m 0,-111.91 v -53.34 c -278.1,270.52 -557.4,511.64 -839.7,720.26 C 12823.4,8471.3 9921.97,7581.3 5336.82,1346.12 4971.57,849.426 4615.12,402.839 4266.88,0 h -50.56 c 354.33,408.119 717.43,862.922 1089.49,1368.91 4602.57,6258.78 7520.49,7148.13 10177.19,5184.72 274.7,-203 546.5,-436.73 817,-697.98 z m 0,-112.31 v -54.02 c -316.9,314.56 -635.3,589.97 -957.8,821.51 C 12732.2,8385.16 9850.64,7384.88 5336.95,1068.07 5062.06,683.329 4792.43,329.521 4527.1,0 h -50.04 c 271.33,335.748 547.15,696.629 828.62,1090.53 4530.65,6340.55 7428.72,7340.49 10058.92,5451.66 315,-226.16 626,-493.98 935.4,-798.85 z m 0,-112.8 v -54.47 c -352.6,357.03 -707,664.29 -1066.5,915.34 C 12647.6,8297.02 9785.09,7191.96 5337.11,790.094 5143.17,510.94 4952.33,250.661 4763.15,0 h -48.28 c 194.59,257.019 391.01,524.73 590.65,812.099 4464.57,6425.741 7343.68,7530.831 9949.98,5710.971 352.2,-245.93 699.2,-545.57 1044.5,-892.53 z m 0,-113.32 v -54.89 c -385.6,398.17 -773.2,735.48 -1167.1,1003.14 C 12569,8207.34 9724.55,7002.14 5337.17,512.081 5217.83,335.519 5099.49,165.413 4981.9,0 h -46.68 c 122.44,171.802 245.83,349.635 370.23,533.662 4403.52,6513.938 7264.45,7719.458 9848.95,5963.618 386.8,-262.79 767.2,-592.31 1145.6,-980.06 z m 0,-113.54 v -55.58 c -416.3,438.2 -834.6,803.85 -1260.6,1085.63 C 12495.6,8116.27 9668.51,6814.99 5337.34,234.101 5284.2,153.383 5231.97,78.4361 5179.2,0 h -46.26 c 57.47,85.2821 114.45,167.206 172.35,255.226 4347.02,6604.914 7190.61,7906.864 9755.21,6210.614 419,-277.15 830.4,-634.74 1239.5,-1062.16 z m 0,-113.68 v -56.36 c -444.8,477.2 -891.7,869.57 -1347.7,1163.35 C 12432.6,8020.48 9628.8,6635.93 5365.86,0 h -45.77 c 4286.05,6678.2 7109.61,8068.14 9653.01,6429.4 449,-289.35 889.2,-673.35 1326.9,-1139.4 z m 0,-114.68 v -56.43 c -471.4,515.34 -945,933.14 -1429,1237.07 C 12402.9,7905.93 9657.52,6494.53 5540.21,0 h -45.35 c 4139.81,6536.02 6904.84,7953.27 9396.44,6388.52 477.3,-299.72 944.2,-709.37 1408.7,-1213.2 z m 0,-114.53 v -57.41 c -496.4,552.77 -995,995.12 -1505.2,1307.6 C 12376.5,7792.03 9687.97,6357.85 5708.29,0 h -45.21 c 4001.71,6398.88 6709.82,7839.3 9151.72,6343.84 503.7,-308.47 995.7,-742.18 1485.2,-1283.05 z m 0,-115.34 v -57.57 c -519.8,589.51 -1041.8,1055.13 -1576.7,1374.8 C 12352.9,7679.08 9719.72,6225.98 5870.15,0 h -45.08 C 9696.32,6266.61 12349,7726.15 14743,6295.69 c 528.5,-315.81 1044,-773.02 1557,-1350.24" /></g></g></g></svg>